<svg width="1500" height="500" viewBox="0 0 1500 500" fill="none" xmlns="http://www.w3.org/2000/svg">
<rect width="1500" height="500" fill="black"/>
<path d="M483 310V203.8H488.4V310H483ZM493.8 310V203.8H499.2V310H493.8ZM504.6 310V203.8H520.8V310H504.6ZM526.2 310V203.8H531.6V310H526.2ZM547.8 310V203.8H564V310H547.8ZM512.88 325.66H517.38L534.84 356.62V325.66H540.06V326.2C539.7 326.44 539.52 326.74 539.52 327.1C539.4 327.34 539.34 327.88 539.34 328.72V367.42H535.74L517.2 334.66V367.42H512.88V325.66ZM569.484 310V203.8H574.884V310H569.484ZM580.284 310V203.8H585.684V310H580.284ZM601.884 310V203.8H618.084V310H601.884ZM623.484 310V203.8H639.684V310H623.484ZM645.084 310V203.8H650.484V310H645.084ZM612.684 325.48C616.764 325.48 619.944 327.34 622.224 331.06C624.504 334.9 625.644 340.12 625.644 346.72C625.644 353.56 624.504 358.84 622.224 362.56C620.064 366.28 616.884 368.14 612.684 368.14C608.484 368.14 605.304 366.28 603.144 362.56C600.864 358.84 599.724 353.56 599.724 346.72C599.724 340.12 600.864 334.9 603.144 331.06C605.424 327.34 608.604 325.48 612.684 325.48ZM612.684 329.62C610.164 329.62 608.184 331.12 606.744 334.12C605.304 337.24 604.584 341.44 604.584 346.72C604.584 349.72 604.764 352.3 605.124 354.46L619.344 336.1C618.744 334.06 617.844 332.44 616.644 331.24C615.564 330.16 614.244 329.62 612.684 329.62ZM612.684 364C615.204 364 617.184 362.56 618.624 359.68C620.064 356.68 620.784 352.36 620.784 346.72C620.784 344.2 620.604 341.98 620.244 340.06L606.204 358.24C607.524 362.08 609.684 364 612.684 364ZM655.969 310V203.8H661.369V310H655.969ZM666.769 310V203.8H672.169V310H666.769ZM688.369 310V203.8H704.569V310H688.369ZM709.969 310V203.8H726.169V310H709.969ZM731.569 310V203.8H736.969V310H731.569ZM699.169 325.48C703.249 325.48 706.429 327.34 708.709 331.06C710.989 334.9 712.129 340.12 712.129 346.72C712.129 353.56 710.989 358.84 708.709 362.56C706.549 366.28 703.369 368.14 699.169 368.14C694.969 368.14 691.789 366.28 689.629 362.56C687.349 358.84 686.209 353.56 686.209 346.72C686.209 340.12 687.349 334.9 689.629 331.06C691.909 327.34 695.089 325.48 699.169 325.48ZM699.169 329.62C696.649 329.62 694.669 331.12 693.229 334.12C691.789 337.24 691.069 341.44 691.069 346.72C691.069 349.72 691.249 352.3 691.609 354.46L705.829 336.1C705.229 334.06 704.329 332.44 703.129 331.24C702.049 330.16 700.729 329.62 699.169 329.62ZM699.169 364C701.689 364 703.669 362.56 705.109 359.68C706.549 356.68 707.269 352.36 707.269 346.72C707.269 344.2 707.089 341.98 706.729 340.06L692.689 358.24C694.009 362.08 696.169 364 699.169 364ZM742.453 310V203.8H758.653V310H742.453ZM764.053 310V203.8H780.253V310H764.053ZM785.653 310V203.8H791.053V310H785.653ZM796.453 310V203.8H801.853V310H796.453ZM818.053 310V203.8H823.453V310H818.053ZM771.613 325.66H775.393L785.653 346.18L796.093 325.66H799.693V367.42H795.193V335.92L786.193 352.84H784.393L775.933 336.1V367.42H771.613V325.66ZM828.938 310V203.8H834.338V310H828.938ZM839.738 310V203.8H845.138V310H839.738ZM861.338 310V203.8H877.538V310H861.338ZM882.938 310V203.8H888.338V310H882.938ZM893.738 310V203.8H909.938V310H893.738ZM876.638 357.16H858.638V353.74L877.718 325.66H881.678V353.38H886.898V357.16H881.678V367.42H876.638V357.16ZM876.638 353.2V334.12L864.038 353.2H876.638ZM915.422 310V203.8H920.822V310H915.422ZM926.222 310V203.8H931.622V310H926.222ZM937.022 310V203.8H953.222V310H937.022ZM969.422 310V203.8H974.822V310H969.422ZM980.222 310V203.8H996.422V310H980.222ZM945.482 325.66H955.202C958.682 325.66 961.382 326.14 963.302 327.1C965.342 328.06 967.082 329.5 968.522 331.42C971.282 335.02 972.662 340.12 972.662 346.72C972.422 353.56 970.862 358.72 967.982 362.2C965.102 365.8 960.602 367.54 954.482 367.42H945.482V325.66ZM954.122 363.82C963.362 363.82 967.982 358.24 967.982 347.08C967.982 341.44 966.962 337.12 964.922 334.12C962.762 331.12 959.402 329.62 954.842 329.62H949.982V363.82H954.122Z" fill="white"/>
</svg>
