<svg width="1500" height="500" viewBox="0 0 1500 500" fill="none" xmlns="http://www.w3.org/2000/svg">
<rect width="1500" height="500" fill="black"/>
<path d="M565 279V203.48H568.84V279H565ZM572.68 279V203.48H576.52V279H572.68ZM580.36 279V203.48H591.88V279H580.36ZM595.72 279V203.48H599.56V279H595.72ZM611.08 279V203.48H622.6V279H611.08ZM586.248 290.136H589.448L601.864 312.152V290.136H605.576V290.52C605.32 290.691 605.192 290.904 605.192 291.16C605.107 291.331 605.064 291.715 605.064 292.312V319.832H602.504L589.32 296.536V319.832H586.248V290.136ZM626.5 279V203.48H630.34V279H626.5ZM634.18 279V203.48H638.02V279H634.18ZM649.54 279V203.48H661.06V279H649.54ZM664.9 279V203.48H676.42V279H664.9ZM680.26 279V203.48H684.1V279H680.26ZM657.22 290.008C660.121 290.008 662.383 291.331 664.004 293.976C665.625 296.707 666.436 300.419 666.436 305.112C666.436 309.976 665.625 313.731 664.004 316.376C662.468 319.021 660.207 320.344 657.22 320.344C654.233 320.344 651.972 319.021 650.436 316.376C648.815 313.731 648.004 309.976 648.004 305.112C648.004 300.419 648.815 296.707 650.436 293.976C652.057 291.331 654.319 290.008 657.22 290.008ZM657.22 292.952C655.428 292.952 654.02 294.019 652.996 296.152C651.972 298.371 651.46 301.357 651.46 305.112C651.46 307.245 651.588 309.08 651.844 310.616L661.956 297.56C661.529 296.109 660.889 294.957 660.036 294.104C659.268 293.336 658.329 292.952 657.22 292.952ZM657.22 317.4C659.012 317.4 660.42 316.376 661.444 314.328C662.468 312.195 662.98 309.123 662.98 305.112C662.98 303.32 662.852 301.741 662.596 300.376L652.612 313.304C653.551 316.035 655.087 317.4 657.22 317.4ZM688 279V203.48H691.84V279H688ZM695.68 279V203.48H699.52V279H695.68ZM711.04 279V203.48H722.56V279H711.04ZM726.4 279V203.48H737.92V279H726.4ZM741.76 279V203.48H745.6V279H741.76ZM718.72 290.008C721.621 290.008 723.883 291.331 725.504 293.976C727.125 296.707 727.936 300.419 727.936 305.112C727.936 309.976 727.125 313.731 725.504 316.376C723.968 319.021 721.707 320.344 718.72 320.344C715.733 320.344 713.472 319.021 711.936 316.376C710.315 313.731 709.504 309.976 709.504 305.112C709.504 300.419 710.315 296.707 711.936 293.976C713.557 291.331 715.819 290.008 718.72 290.008ZM718.72 292.952C716.928 292.952 715.52 294.019 714.496 296.152C713.472 298.371 712.96 301.357 712.96 305.112C712.96 307.245 713.088 309.08 713.344 310.616L723.456 297.56C723.029 296.109 722.389 294.957 721.536 294.104C720.768 293.336 719.829 292.952 718.72 292.952ZM718.72 317.4C720.512 317.4 721.92 316.376 722.944 314.328C723.968 312.195 724.48 309.123 724.48 305.112C724.48 303.32 724.352 301.741 724.096 300.376L714.112 313.304C715.051 316.035 716.587 317.4 718.72 317.4ZM749.5 279V203.48H761.02V279H749.5ZM764.86 279V203.48H776.38V279H764.86ZM780.22 279V203.48H784.06V279H780.22ZM787.9 279V203.48H791.74V279H787.9ZM803.26 279V203.48H807.1V279H803.26ZM770.236 290.136H772.924L780.22 304.728L787.644 290.136H790.204V319.832H787.004V297.432L780.604 309.464H779.324L773.308 297.56V319.832H770.236V290.136ZM811 279V203.48H814.84V279H811ZM818.68 279V203.48H822.52V279H818.68ZM834.04 279V203.48H845.56V279H834.04ZM849.4 279V203.48H853.24V279H849.4ZM857.08 279V203.48H868.6V279H857.08ZM844.92 312.536H832.12V310.104L845.688 290.136H848.504V309.848H852.216V312.536H848.504V319.832H844.92V312.536ZM844.92 309.72V296.152L835.96 309.72H844.92ZM872.5 279V203.48H876.34V279H872.5ZM880.18 279V203.48H884.02V279H880.18ZM887.86 279V203.48H899.38V279H887.86ZM910.9 279V203.48H914.74V279H910.9ZM918.58 279V203.48H930.1V279H918.58ZM893.876 290.136H900.788C903.263 290.136 905.183 290.477 906.548 291.16C907.999 291.843 909.236 292.867 910.26 294.232C912.223 296.792 913.204 300.419 913.204 305.112C913.033 309.976 911.924 313.645 909.876 316.12C907.828 318.68 904.628 319.917 900.276 319.832H893.876V290.136ZM900.02 317.272C906.591 317.272 909.876 313.304 909.876 305.368C909.876 301.357 909.151 298.285 907.7 296.152C906.164 294.019 903.775 292.952 900.532 292.952H897.076V317.272H900.02Z" fill="white"/>
</svg>
